<?xml version="1.0" encoding="UTF-8"?>
<svg id="Layer_1" data-name="Layer 1" xmlns="http://www.w3.org/2000/svg" viewBox="0 0 378 171">
  <defs>
    <style>
      .cls-1 {
        fill: #faf1e7;
      }

      .cls-2 {
        fill: #75c4d6;
      }

      .cls-3 {
        fill: #24364d;
      }

      .cls-4 {
        fill: #e54b37;
      }
    </style>
  </defs>
  <g>
    <path class="cls-3" d="M137.99,42.07c6.62,0,9.58,2.96,9.58,5.78,1.69-.56,3.1-3.52,3.1-7.04-.14-6.06-4.37-13.81-16.62-13.81-18.17,0-31.98,17.19-44.8,38.18-14.23,23.11-27.47,50.58-44.52,65.51,7.89-15.64,19.3-47.62,19.3-68.75s-11.69-32.97-28.74-32.97S2.88,40.1,2.88,57.01c0,13.38,9.58,19.58,18.74,19.58,8.03,0,15.5-4.79,15.5-13.81,0-3.1-.7-6.48-3.52-7.47,.14,5.21-3.38,8.03-7.61,8.03s-8.03-2.68-8.03-10.28c0-9.86,6.9-17.75,17.47-17.75s14.51,7.33,14.51,22.96c0,28.32-14.37,58.33-20.71,69.17,6.06,2.68,11.98,9.3,15.5,13.53,20.57-14.93,36.63-42.83,52.41-65.23,13.1-18.74,26.06-33.67,40.86-33.67Z"/>
    <path class="cls-3" d="M228.14,75.32c1.83,0,3.94,1.13,5.49,4.23l4.37-9.58c-3.38-.99-6.76-1.69-10.14-1.69-10.14,0-15.64,5.78-17.05,12.12-2.16,5.95-4.59,11.88-7.02,16.84-3.86,7.35-12.62,19.51-18.76,19.51-3.1,0-3.94-1.97-3.94-4.79,0-11.55,14.23-35.08,19.44-42.12-4.23,1.41-12.54,1.83-19.87,1.83-2.11,0-4.08,0-5.92-.14,1.13-3.24,2.96-7.89,5.07-13.67-2.25,1.27-14.93,3.52-19.02,3.52,1.69,1.13,2.68,4.09,2.68,8.88,0,6.75-1.89,15.52-7.5,27.09-3.86,7.23-11.62,19.4-18.42,19.4-2.25,0-3.1-1.27-3.1-3.1,0-1.41,.42-3.1,1.13-4.79l15.64-40.01c-2.25,1.27-11.55,1.69-13.38,1.69-.42,2.68-1.83,7.47-2.4,10.43l-.84,.28c.14-.7,.14-1.41,.14-2.11,0-6.06-2.25-10.71-8.73-10.71-16.06,0-34.24,28.32-34.24,45.37,0,7.33,3.38,12.54,11.69,12.54,7.47,0,13.52-5.35,18.6-14.65-.56,1.69-.85,3.38-.85,4.93,0,4.79,2.11,9.72,9.3,9.72,12.13,0,22.91-13.89,29.44-25.97,2.24-3.89,8.45-16.72,11.42-23.48,1.41,.14,2.96,.28,4.65,.28,2.11,0,4.37-.14,6.62-.42-3.52,5.35-15.64,24.23-15.64,37.19,0,7.61,4.37,12.4,12.12,12.4,7.3,0,13.88-5.35,19.3-11.98,.88,6.83,6.35,12.13,15.36,12.13,11.98,0,20.15-9.16,20.15-19.3s-10.43-19.86-10.43-26.63c0-2.96,2.11-5.21,4.65-5.21Zm-99.05,14.51c-5.35,11.13-12.82,26.91-19.58,26.91-2.39,0-3.38-1.83-3.38-4.93,0-10.85,13.38-36.35,21.41-36.35,2.25,0,3.1,1.97,3.1,4.93,0,2.68-.7,6.06-1.55,9.44Zm81.58,27.61c-4.65,0-7.47-3.66-7.47-8.59,0-.38,.02-.77,.05-1.16,1.41-2.15,2.71-4.3,3.87-6.33l.03,.03c1.27-1.83,3.52-6.34,5.78-11.27,2.68,5.07,6.62,10.71,6.62,16.91,0,7.19-4.51,10.43-8.88,10.43Z"/>
    <path class="cls-3" d="M337.93,130.13l23.95-61.29c-2.11,1.27-11.27,1.69-14.23,1.55l-10.71,27.9c-3.94,7.47-10.43,18.46-16.91,18.46-2.25,0-3.1-1.27-3.1-3.1,0-1.41,.42-3.1,1.13-4.79l15.64-40.01c-2.25,1.27-16.06,2.96-20.15,3.52,1.83,.99,2.54,2.82,2.54,4.79,0,1.55-.42,3.38-1.13,5.07l-6.76,17.57c-4.69,8.03-12.13,16.94-21.84,16.94-2.96,0-4.37-1.69-4.37-4.23,0-1.13,.28-2.39,.85-3.66l13.24-33.67h10.85l1.97-5.35h-10.71l11.98-30.43c-2.25,1.27-16.06,2.96-20.15,3.52,1.83,.99,2.54,2.82,2.54,4.79,0,1.55-.42,3.38-1.13,5.07l-6.62,17.05h-7.89l-1.97,5.35h7.75l-9.89,25.15c-4.31,7.23-11.5,16.41-17.44,16.41-2.25,0-3.1-1.27-3.1-3.1,0-1.41,.42-3.1,1.13-4.79l15.64-40.01c-2.25,1.27-15.78,3.52-20.15,3.52,1.83,.99,2.54,2.82,2.54,4.79,0,1.55-.42,3.38-1.13,5.07l-8.45,21.98c-1.83,4.65-3.38,8.88-3.38,12.4,0,4.79,2.68,9.72,9.86,9.72,7.63,0,14.83-5.5,20.85-12.55,0,0,0,0,0,.01,0,7.89,5.07,12.54,13.1,12.54s14.95-4.58,20.92-11.05c-.04,.45-.07,.89-.07,1.33,0,4.79,2.68,9.72,9.86,9.72s12.54-4.51,17.33-10.57l-4.23,10.99c-.28,.56-.7,1.83-1.41,3.38-20.29,1.69-38.18,10.28-38.18,22.4,0,5.21,3.38,10.71,13.81,10.71,19.02,0,30.57-17.33,35.22-27.47,14.93,2.25,25.64,11.55,25.64,19.72,0,2.54-1.13,4.79-3.66,6.62,2.11,1.13,4.23,1.69,6.2,1.69,6.06,0,11.41-4.51,11.41-10.85,0-10.71-14.79-21.27-37.19-22.82Zm-38.04,27.33c-3.24,0-4.65-1.55-4.65-4.09,0-7.75,12.82-15.5,26.77-17.47-4.51,9.16-12.54,21.56-22.12,21.56Z"/>
    <path class="cls-3" d="M266.07,61.24c4.51,0,7.89-3.8,7.89-8.17,0-4.65-3.38-8.31-7.89-8.31s-8.03,3.66-8.03,8.31c0,4.37,3.52,8.17,8.03,8.17Z"/>
  </g>
  <g>
    <polygon class="cls-4" points="96.84 159.24 98.97 159.24 99.55 146.76 97.3 146.76 97.3 144 102.23 144 107.75 154.01 113.28 144 118.18 144 118.18 146.76 115.94 146.76 116.51 159.24 118.64 159.24 118.64 162 111.26 162 111.26 159.24 113.42 159.24 113.06 149.96 107.92 158.99 107.51 158.99 102.36 149.96 102.01 159.24 104.17 159.24 104.17 162 96.84 162 96.84 159.24"/>
    <path class="cls-4" d="M129.88,159.24h1.56l4.49-12.5h-1.97v-2.74h10.18v2.74h-1.97l4.49,12.5h1.56v2.76h-6.92v-2.74h2.08l-1.01-2.95h-6.73l-1.01,2.95h2.19v2.74h-6.92v-2.76Zm11.63-5.5l-2.52-7.09-2.52,7.09h5.03Z"/>
    <path class="cls-4" d="M159.84,159.24h2.05v-12.48h-2.05v-2.76h6.98c4.13,0,7.09,1.78,7.09,5.44,0,2.33-1.42,4.1-3.39,4.9l2.76,4.9h2.05v2.76h-4.16l-3.61-6.84c-.38,.03-.74,.05-1.09,.05-.57,0-1.09,0-1.48-.03v4.05h2.24v2.76h-7.39v-2.76Zm10.86-9.68c0-1.89-1.56-2.79-4.05-2.79h-1.67v5.77c.33,.03,.77,.05,1.75,.05,2.33,0,3.97-1.15,3.97-3.04Z"/>
    <polygon class="cls-4" points="187.06 159.24 189.11 159.24 189.11 146.76 187.06 146.76 187.06 144 194.45 144 194.45 146.71 192.2 146.71 192.2 152.81 198.25 146.71 196.2 146.71 196.2 144 204.13 144 204.13 146.76 202.19 146.76 197.15 151.71 201.75 159.24 204.13 159.24 204.13 162 199.81 162 194.8 153.79 192.2 156.34 192.2 159.24 194.45 159.24 194.45 162 187.06 162 187.06 159.24"/>
    <polygon class="cls-4" points="215.95 159.24 218 159.24 218 146.76 215.95 146.76 215.95 144 229.38 144 229.38 149.14 226.43 149.14 226.43 146.73 221.09 146.73 221.09 151.55 226.53 151.55 226.53 154.18 221.09 154.18 221.09 159.26 226.45 159.26 226.45 156.86 229.41 156.86 229.41 162 215.95 162 215.95 159.24"/>
    <polygon class="cls-4" points="245.08 159.24 247.32 159.24 247.32 146.68 243.99 146.68 243.99 149.52 241.06 149.52 241.06 144 256.68 144 256.68 149.52 253.75 149.52 253.75 146.68 250.42 146.68 250.42 159.24 252.66 159.24 252.66 162 245.08 162 245.08 159.24"/>
  </g>
  <path class="cls-2" d="M181.84,49.32L198,7.23S213.36,.06,233.09,14.1c0,0,11.48,9.71,26.43,9.54,0,0-7.96,15.05-44.38,11.54,0,0-19.98-2.96-33.3,14.14Z"/>
  <polygon class="cls-1" points="217.8 10.08 218.65 17.23 226.07 18.37 219.18 21.65 220.03 28.8 214.92 23.68 208.02 26.95 211.76 20.51 206.65 15.38 214.07 16.53 217.8 10.08"/>
</svg>